<mxfile host="app.diagrams.net" modified="2022-02-25T03:34:29.188Z" agent="5.0 (Windows NT 6.1; Win64; x64) AppleWebKit/537.36 (KHTML, like Gecko) Chrome/98.0.4758.82 Safari/537.36" etag="5NQQ4kSWe-HHRRIlYRgZ" version="16.6.4" type="github">
  <diagram id="ExYgUyGVm4GLRJD8bGKz" name="第 1 页">
    <mxGraphModel dx="1422" dy="802" grid="1" gridSize="10" guides="1" tooltips="1" connect="1" arrows="1" fold="1" page="1" pageScale="1" pageWidth="827" pageHeight="1169" math="0" shadow="0">
      <root>
        <mxCell id="0" />
        <mxCell id="1" parent="0" />
        <mxCell id="GJKJHTypQpoVm6HZVbaf-3" value="" style="edgeStyle=orthogonalEdgeStyle;rounded=0;orthogonalLoop=1;jettySize=auto;html=1;" edge="1" parent="1" source="GJKJHTypQpoVm6HZVbaf-1" target="GJKJHTypQpoVm6HZVbaf-2">
          <mxGeometry relative="1" as="geometry" />
        </mxCell>
        <mxCell id="GJKJHTypQpoVm6HZVbaf-1" value="开始" style="whiteSpace=wrap;html=1;aspect=fixed;" vertex="1" parent="1">
          <mxGeometry x="190" y="200" width="80" height="80" as="geometry" />
        </mxCell>
        <mxCell id="GJKJHTypQpoVm6HZVbaf-2" value="结束" style="whiteSpace=wrap;html=1;" vertex="1" parent="1">
          <mxGeometry x="380" y="180" width="120" height="60" as="geometry" />
        </mxCell>
      </root>
    </mxGraphModel>
  </diagram>
</mxfile>
